<?xml version="1.0" encoding="UTF-8" standalone="no"?>
<svg
   xmlns:dc="http://purl.org/dc/elements/1.1/"
   xmlns:cc="http://creativecommons.org/ns#"
   xmlns:rdf="http://www.w3.org/1999/02/22-rdf-syntax-ns#"
   xmlns:svg="http://www.w3.org/2000/svg"
   xmlns="http://www.w3.org/2000/svg"
   xmlns:sodipodi="http://sodipodi.sourceforge.net/DTD/sodipodi-0.dtd"
   xmlns:inkscape="http://www.inkscape.org/namespaces/inkscape"
   width="1080"
   height="450"
   viewBox="0 0 393.7464 164.061"
   version="1.1"
   id="svg8"
   inkscape:version="1.0.1 (3bc2e813f5, 2020-09-07)"
   sodipodi:docname="new-letter-bg.svg">
  <defs
     id="defs2" />
  <sodipodi:namedview
     id="base"
     pagecolor="#ffffff"
     bordercolor="#666666"
     borderopacity="1.0"
     inkscape:pageopacity="0"
     inkscape:pageshadow="2"
     inkscape:zoom="0.76937478"
     inkscape:cx="548.70156"
     inkscape:cy="259.84238"
     inkscape:document-units="px"
     inkscape:current-layer="g61"
     inkscape:document-rotation="0"
     showgrid="false"
     units="px"
     scale-x="0.36458"
     inkscape:pagecheckerboard="false"
     inkscape:showpageshadow="false"
     showborder="true"
     inkscape:window-width="1366"
     inkscape:window-height="715"
     inkscape:window-x="-8"
     inkscape:window-y="22"
     inkscape:window-maximized="1" />
  <metadata
     id="metadata5">
    <rdf:RDF>
      <cc:Work
         rdf:about="">
        <dc:format>image/svg+xml</dc:format>
        <dc:type
           rdf:resource="http://purl.org/dc/dcmitype/StillImage" />
        <dc:title />
      </cc:Work>
    </rdf:RDF>
  </metadata>
  <g
     inkscape:label="Layer 1"
     inkscape:groupmode="layer"
     id="layer1">
    <g
       id="g61"
       transform="matrix(0.36458,0,0,0.36458,88.563528,38.96084)">
      <rect
         style="opacity:1;fill:#581b98;fill-opacity:1;stroke:#581b98;stroke-width:19.466;stroke-opacity:1"
         id="rect73"
         width="1060.5341"
         height="430.53397"
         x="-233.18636"
         y="-97.131981" />
      <g
         id="g977"
         transform="matrix(0.09929363,-0.04592611,0.04592611,0.09929363,-133.08582,230.11965)"
         style="opacity:0.05">
        <g
           id="g920">
          <g
             id="g918">
            <path
               d="M 467,61 H 45 C 20.218,61 0,81.196 0,106 v 300 c 0,24.72 20.128,45 45,45 h 422 c 24.72,0 45,-20.128 45,-45 V 106 C 512,81.28 491.872,61 467,61 Z M 460.786,91 256.954,294.833 51.359,91 Z M 30,399.788 V 112.069 l 144.479,143.24 z M 51.213,421 195.783,276.43 246.44,326.652 c 5.864,5.814 15.327,5.795 21.167,-0.046 L 317,277.213 460.787,421 Z M 482,399.787 338.213,256 482,112.212 Z"
               id="path916" />
          </g>
        </g>
        <g
           id="g922" />
        <g
           id="g924" />
        <g
           id="g926" />
        <g
           id="g928" />
        <g
           id="g930" />
        <g
           id="g932" />
        <g
           id="g934" />
        <g
           id="g936" />
        <g
           id="g938" />
        <g
           id="g940" />
        <g
           id="g942" />
        <g
           id="g944" />
        <g
           id="g946" />
        <g
           id="g948" />
        <g
           id="g950" />
      </g>
      <g
         id="g1010"
         transform="matrix(0.10865357,0.06294771,-0.06294771,0.10865357,669.67291,226.93504)"
         style="opacity:0.1">
        <path
           d="m 879.99927,389.83741 a 0.99678,0.99678 0 0 1 -0.5708,-0.1792 L 602.86963,197.05469 a 5.01548,5.01548 0 0 0 -5.72852,0.01 l -274.56677,192.5918 a 1.0001909,1.0001909 0 0 1 -1.14868,-1.6377 l 274.567,-192.5918 a 7.02216,7.02216 0 0 1 8.02,-0.0132 l 276.55883,192.603 a 1.00019,1.00019 0 0 1 -0.57226,1.8208 z"
           transform="translate(-315,-194.16259)"
           fill="#3f3d56"
           id="path979" />
        <polygon
           points="23.264,202.502 285.276,8.319 549.276,216.319 298.776,364.819 162.776,333.819 "
           fill="#e6e6e6"
           id="polygon981" />
        <path
           d="M 489.25553,650.70367 H 359.81522 a 6.04737,6.04737 0 1 1 0,-12.09473 h 129.44031 a 6.04737,6.04737 0 1 1 0,12.09473 z"
           transform="translate(-315,-194.16259)"
           fill="#6c63ff"
           id="path983" />
        <path
           d="m 406.25553,624.70367 h -46.44031 a 6.04737,6.04737 0 1 1 0,-12.09473 h 46.44031 a 6.04737,6.04737 0 1 1 0,12.09473 z"
           transform="translate(-315,-194.16259)"
           fill="#6c63ff"
           id="path985" />
        <path
           d="m 603.96016,504.82207 a 7.56366,7.56366 0 0 1 -2.86914,-0.562 L 439.5002,437.21123 v -209.874 a 7.00817,7.00817 0 0 1 7,-7 h 310 a 7.00818,7.00818 0 0 1 7,7 v 210.0205 l -0.30371,0.12989 -156.28027,66.73972 a 7.61624,7.61624 0 0 1 -2.95606,0.59473 z"
           transform="translate(-315,-194.16259)"
           fill="#ffffff"
           id="path987" />
        <path
           d="m 603.96016,505.32158 a 8.07177,8.07177 0 0 1 -3.05957,-0.59863 L 439.0002,437.54521 v -210.208 a 7.50851,7.50851 0 0 1 7.5,-7.5 h 310 a 7.50851,7.50851 0 0 1 7.5,7.5 v 210.35058 l -156.8877,66.999 a 8.10957,8.10957 0 0 1 -3.15234,0.63479 z m -162.96,-69.1123 160.66309,66.66455 a 6.1182,6.1182 0 0 0 4.668,-0.0278 l 155.669,-66.47851 V 227.33721 a 5.50653,5.50653 0 0 0 -5.5,-5.5 h -310 a 5.50653,5.50653 0 0 0 -5.5,5.5 z"
           transform="translate(-315,-194.16259)"
           fill="#3f3d56"
           id="path989" />
        <path
           d="m 878,387.83741 h -0.2002 L 763,436.85743 l -157.06982,67.07 a 5.06614,5.06614 0 0 1 -3.88038,0.02 L 440,436.71741 l -117.62012,-48.8 -0.17968,-0.08 H 322 a 7.00778,7.00778 0 0 0 -7,7 v 304 a 7.00779,7.00779 0 0 0 7,7 h 556 a 7.00779,7.00779 0 0 0 7,-7 v -304 a 7.00778,7.00778 0 0 0 -7,-7 z m 5,311 a 5.002,5.002 0 0 1 -5,5 H 322 a 5.002,5.002 0 0 1 -5,-5 v -304 a 5.01106,5.01106 0 0 1 4.81006,-5 L 440,438.87739 l 161.28027,66.92 a 7.12081,7.12081 0 0 0 5.43994,-0.03 L 763,439.02741 l 115.2002,-49.19 a 5.01621,5.01621 0 0 1 4.7998,5 z"
           transform="translate(-315,-194.16259)"
           fill="#3f3d56"
           id="path991" />
        <path
           d="m 602.345,445.30958 a 27.49862,27.49862 0 0 1 -16.5459,-5.4961 l -0.2959,-0.22217 -62.311,-47.70752 a 27.683371,27.683371 0 1 1 33.67407,-43.94921 l 40.36035,30.94775 95.37793,-124.38672 a 27.68235,27.68235 0 0 1 38.81323,-5.12353 l -0.593,0.80517 0.6084,-0.79346 a 27.71447,27.71447 0 0 1 5.12353,38.81348 L 624.36938,434.50586 A 27.69447,27.69447 0 0 1 602.345,445.30958 Z"
           transform="translate(-315,-194.16259)"
           fill="#6c63ff"
           id="path993" />
      </g>
      <g
         id="g1028"
         transform="matrix(0.22595121,-0.15611333,0.15611333,0.22595121,-256.11444,202.47312)"
         style="opacity:0.1">
        <g
           id="g101"
           transform="translate(653.41806,-423.57315)">
          <path
             d="m 879.99927,389.83741 a 0.99678,0.99678 0 0 1 -0.5708,-0.1792 L 602.86963,197.05469 a 5.01548,5.01548 0 0 0 -5.72852,0.01 l -274.56677,192.5918 a 1.0001909,1.0001909 0 0 1 -1.14868,-1.6377 l 274.567,-192.5918 a 7.02216,7.02216 0 0 1 8.02,-0.0132 l 276.55883,192.603 a 1.00019,1.00019 0 0 1 -0.57226,1.8208 z"
             transform="translate(-315,-194.16259)"
             fill="#3f3d56"
             id="path1012" />
          <polygon
             points="285.276,8.319 549.276,216.319 298.776,364.819 162.776,333.819 23.264,202.502 "
             fill="#e6e6e6"
             id="polygon1014" />
          <path
             d="M 489.25553,650.70367 H 359.81522 a 6.04737,6.04737 0 1 1 0,-12.09473 h 129.44031 a 6.04737,6.04737 0 1 1 0,12.09473 z"
             transform="translate(-315,-194.16259)"
             fill="#6c63ff"
             id="path1016" />
          <path
             d="m 406.25553,624.70367 h -46.44031 a 6.04737,6.04737 0 1 1 0,-12.09473 h 46.44031 a 6.04737,6.04737 0 1 1 0,12.09473 z"
             transform="translate(-315,-194.16259)"
             fill="#6c63ff"
             id="path1018" />
          <path
             d="m 603.96016,504.82207 a 7.56366,7.56366 0 0 1 -2.86914,-0.562 L 439.5002,437.21123 v -209.874 a 7.00817,7.00817 0 0 1 7,-7 h 310 a 7.00818,7.00818 0 0 1 7,7 v 210.0205 l -0.30371,0.12989 -156.28027,66.73972 a 7.61624,7.61624 0 0 1 -2.95606,0.59473 z"
             transform="translate(-315,-194.16259)"
             fill="#ffffff"
             id="path1020" />
          <path
             d="m 603.96016,505.32158 a 8.07177,8.07177 0 0 1 -3.05957,-0.59863 L 439.0002,437.54521 v -210.208 a 7.50851,7.50851 0 0 1 7.5,-7.5 h 310 a 7.50851,7.50851 0 0 1 7.5,7.5 v 210.35058 l -156.8877,66.999 a 8.10957,8.10957 0 0 1 -3.15234,0.63479 z m -162.96,-69.1123 160.66309,66.66455 a 6.1182,6.1182 0 0 0 4.668,-0.0278 l 155.669,-66.47851 V 227.33721 a 5.50653,5.50653 0 0 0 -5.5,-5.5 h -310 a 5.50653,5.50653 0 0 0 -5.5,5.5 z"
             transform="translate(-315,-194.16259)"
             fill="#3f3d56"
             id="path1022" />
          <path
             d="m 878,387.83741 h -0.2002 L 763,436.85743 l -157.06982,67.07 a 5.06614,5.06614 0 0 1 -3.88038,0.02 L 440,436.71741 l -117.62012,-48.8 -0.17968,-0.08 H 322 a 7.00778,7.00778 0 0 0 -7,7 v 304 a 7.00779,7.00779 0 0 0 7,7 h 556 a 7.00779,7.00779 0 0 0 7,-7 v -304 a 7.00778,7.00778 0 0 0 -7,-7 z m 5,311 a 5.002,5.002 0 0 1 -5,5 H 322 a 5.002,5.002 0 0 1 -5,-5 v -304 a 5.01106,5.01106 0 0 1 4.81006,-5 L 440,438.87739 l 161.28027,66.92 a 7.12081,7.12081 0 0 0 5.43994,-0.03 L 763,439.02741 l 115.2002,-49.19 a 5.01621,5.01621 0 0 1 4.7998,5 z"
             fill="#3f3d56"
             id="path1024"
             transform="translate(-315,-194.16259)" />
          <path
             d="m 602.345,445.30958 a 27.49862,27.49862 0 0 1 -16.5459,-5.4961 l -0.2959,-0.22217 -62.311,-47.70752 a 27.683371,27.683371 0 1 1 33.67407,-43.94921 l 40.36035,30.94775 95.37793,-124.38672 a 27.68235,27.68235 0 0 1 38.81323,-5.12353 l -0.593,0.80517 0.6084,-0.79346 a 27.71447,27.71447 0 0 1 5.12353,38.81348 L 624.36938,434.50586 A 27.69447,27.69447 0 0 1 602.345,445.30958 Z"
             transform="translate(-315,-194.16259)"
             fill="#6c63ff"
             id="path1026" />
        </g>
      </g>
      <g
         id="g1066"
         transform="matrix(0.20048075,-0.09272801,0.09272801,0.20048075,546.05839,195.06306)"
         style="opacity:0.05">
        <g
           id="g1034"
           transform="translate(647.6624,-900.33781)">
          <g
             id="g1032">
            <path
               d="M 467,61 H 45 C 20.218,61 0,81.196 0,106 v 300 c 0,24.72 20.128,45 45,45 h 422 c 24.72,0 45,-20.128 45,-45 V 106 C 512,81.28 491.872,61 467,61 Z M 460.786,91 256.954,294.833 51.359,91 Z M 30,399.788 V 112.069 l 144.479,143.24 z M 51.213,421 195.783,276.43 246.44,326.652 c 5.864,5.814 15.327,5.795 21.167,-0.046 L 317,277.213 460.787,421 Z M 482,399.787 338.213,256 482,112.212 Z"
               id="path1030" />
          </g>
        </g>
        <g
           id="g1036" />
        <g
           id="g1038" />
        <g
           id="g1040" />
        <g
           id="g1042" />
        <g
           id="g1044" />
        <g
           id="g1046" />
        <g
           id="g1048" />
        <g
           id="g1050" />
        <g
           id="g1052" />
        <g
           id="g1054" />
        <g
           id="g1056" />
        <g
           id="g1058" />
        <g
           id="g1060" />
        <g
           id="g1062" />
        <g
           id="g1064" />
      </g>
      <g
         id="g1084"
         transform="matrix(0.0465845,-0.03218598,0.03218598,0.0465845,341.84599,-20.701051)"
         style="opacity:0.1">
        <path
           d="m 879.99927,389.83741 a 0.99678,0.99678 0 0 1 -0.5708,-0.1792 L 602.86963,197.05469 a 5.01548,5.01548 0 0 0 -5.72852,0.01 l -274.56677,192.5918 a 1.0001909,1.0001909 0 0 1 -1.14868,-1.6377 l 274.567,-192.5918 a 7.02216,7.02216 0 0 1 8.02,-0.0132 l 276.55883,192.603 a 1.00019,1.00019 0 0 1 -0.57226,1.8208 z"
           transform="translate(-315,-194.16259)"
           fill="#3f3d56"
           id="path1068" />
        <polygon
           points="298.776,364.819 162.776,333.819 23.264,202.502 285.276,8.319 549.276,216.319 "
           fill="#e6e6e6"
           id="polygon1070" />
        <path
           d="M 489.25553,650.70367 H 359.81522 a 6.04737,6.04737 0 1 1 0,-12.09473 h 129.44031 a 6.04737,6.04737 0 1 1 0,12.09473 z"
           transform="translate(-315,-194.16259)"
           fill="#6c63ff"
           id="path1072" />
        <path
           d="m 406.25553,624.70367 h -46.44031 a 6.04737,6.04737 0 1 1 0,-12.09473 h 46.44031 a 6.04737,6.04737 0 1 1 0,12.09473 z"
           transform="translate(-315,-194.16259)"
           fill="#6c63ff"
           id="path1074" />
        <path
           d="m 603.96016,504.82207 a 7.56366,7.56366 0 0 1 -2.86914,-0.562 L 439.5002,437.21123 v -209.874 a 7.00817,7.00817 0 0 1 7,-7 h 310 a 7.00818,7.00818 0 0 1 7,7 v 210.0205 l -0.30371,0.12989 -156.28027,66.73972 a 7.61624,7.61624 0 0 1 -2.95606,0.59473 z"
           transform="translate(-315,-194.16259)"
           fill="#ffffff"
           id="path1076" />
        <path
           d="m 603.96016,505.32158 a 8.07177,8.07177 0 0 1 -3.05957,-0.59863 L 439.0002,437.54521 v -210.208 a 7.50851,7.50851 0 0 1 7.5,-7.5 h 310 a 7.50851,7.50851 0 0 1 7.5,7.5 v 210.35058 l -156.8877,66.999 a 8.10957,8.10957 0 0 1 -3.15234,0.63479 z m -162.96,-69.1123 160.66309,66.66455 a 6.1182,6.1182 0 0 0 4.668,-0.0278 l 155.669,-66.47851 V 227.33721 a 5.50653,5.50653 0 0 0 -5.5,-5.5 h -310 a 5.50653,5.50653 0 0 0 -5.5,5.5 z"
           transform="translate(-315,-194.16259)"
           fill="#3f3d56"
           id="path1078" />
        <path
           d="m 878,387.83741 h -0.2002 L 763,436.85743 l -157.06982,67.07 a 5.06614,5.06614 0 0 1 -3.88038,0.02 L 440,436.71741 l -117.62012,-48.8 -0.17968,-0.08 H 322 a 7.00778,7.00778 0 0 0 -7,7 v 304 a 7.00779,7.00779 0 0 0 7,7 h 556 a 7.00779,7.00779 0 0 0 7,-7 v -304 a 7.00778,7.00778 0 0 0 -7,-7 z m 5,311 a 5.002,5.002 0 0 1 -5,5 H 322 a 5.002,5.002 0 0 1 -5,-5 v -304 a 5.01106,5.01106 0 0 1 4.81006,-5 L 440,438.87739 l 161.28027,66.92 a 7.12081,7.12081 0 0 0 5.43994,-0.03 L 763,439.02741 l 115.2002,-49.19 a 5.01621,5.01621 0 0 1 4.7998,5 z"
           transform="translate(-315,-194.16259)"
           fill="#3f3d56"
           id="path1080" />
        <path
           d="m 602.345,445.30958 a 27.49862,27.49862 0 0 1 -16.5459,-5.4961 l -0.2959,-0.22217 -62.311,-47.70752 a 27.683371,27.683371 0 1 1 33.67407,-43.94921 l 40.36035,30.94775 95.37793,-124.38672 a 27.68235,27.68235 0 0 1 38.81323,-5.12353 l -0.593,0.80517 0.6084,-0.79346 a 27.71447,27.71447 0 0 1 5.12353,38.81348 L 624.36938,434.50586 A 27.69447,27.69447 0 0 1 602.345,445.30958 Z"
           fill="#6c63ff"
           id="path1082"
           transform="translate(-315,-194.16259)" />
      </g>
      <g
         id="g1160"
         transform="matrix(0.07188878,-0.0332506,0.0332506,0.07188878,186.84603,248.27327)"
         style="opacity:0.05">
        <g
           id="g1128"
           transform="translate(647.6624,-900.33781)">
          <g
             id="g1126">
            <path
               d="M 467,61 H 45 C 20.218,61 0,81.196 0,106 v 300 c 0,24.72 20.128,45 45,45 h 422 c 24.72,0 45,-20.128 45,-45 V 106 C 512,81.28 491.872,61 467,61 Z M 460.786,91 256.954,294.833 51.359,91 Z M 30,399.788 V 112.069 l 144.479,143.24 z M 51.213,421 195.783,276.43 246.44,326.652 c 5.864,5.814 15.327,5.795 21.167,-0.046 L 317,277.213 460.787,421 Z M 482,399.787 338.213,256 482,112.212 Z"
               id="path1124" />
          </g>
        </g>
        <g
           id="g1130" />
        <g
           id="g1132" />
        <g
           id="g1134" />
        <g
           id="g1136" />
        <g
           id="g1138" />
        <g
           id="g1140" />
        <g
           id="g1142" />
        <g
           id="g1144" />
        <g
           id="g1146" />
        <g
           id="g1148" />
        <g
           id="g1150" />
        <g
           id="g1152" />
        <g
           id="g1154" />
        <g
           id="g1156" />
        <g
           id="g1158" />
      </g>
    </g>
  </g>
</svg>
